# ProBuilder 5.0.6
# https://unity3d.com/unity/features/worldbuilding/probuilder
# 2022-08-24 오전 5:42:28

mtllib ./Beefeater.mtl
o Beefeater

g Beefeater
v -0.04285182 -0.1850467 0.03785183
v -0.03785183 -0.1850467 0.04285182
v 0 -0.1850467 0.04285182
v 0 -0.1850467 0
v -0.04285182 -0.1850467 0
v 0 0.1949791 0
v 0 0.1949791 0.01851477
v -0.009116904 0.1949791 0.01853173
v -0.01984644 0.1949791 0.00808034
v -0.01962499 0.1949791 0
v 0 0.1949791 -0.01864228
v -0.01983112 0.1949791 -0.007790358
v -0.008753494 0.1949791 -0.01859178
v 0 -0.1850467 -0.04285182
v -0.03785183 -0.1850467 -0.04285182
v -0.04285182 -0.1850467 -0.03785183
v 0.04285182 -0.1850467 0
v 0.04285182 -0.1850467 -0.03785183
v 0.03785183 -0.1850467 -0.04285182
v 0.006702143 0.1949791 -0.01858423
v 0.01752834 0.1949791 -0.007756122
v 0.01768351 0.1949791 0
v 0.0174421 0.1949791 0.008092362
v 0.006510638 0.1949791 0.01850159
v 0.03785183 -0.1850467 0.04285182
v 0.04285182 -0.1850467 0.03785183
v 0 -0.1820333 0.04691561
v 0.0416682 -0.1820333 0.04691561
v 5.623518E-13 0.1114549 0.04902426
v 0.04375909 0.1114549 0.04902426
v -0.0416682 -0.1820333 0.04691561
v -0.04375909 0.1114549 0.04902426
v 0 -0.1820333 -0.04691561
v -0.0416682 -0.1820333 -0.04691561
v 5.623518E-13 0.1114549 -0.04902426
v -0.04375909 0.1114549 -0.04902426
v 0.0416682 -0.1820333 -0.04691561
v 0.04375909 0.1114549 -0.04902426
v -0.04691561 -0.1820333 0
v -0.04691561 -0.1820333 0.0416682
v -0.04902426 0.1114549 2.183248E-12
v -0.04902426 0.1114549 0.04375909
v -0.04691561 -0.1820333 -0.0416682
v -0.04902426 0.1114549 -0.04375909
v 0.04691561 -0.1820333 0
v 0.04691561 -0.1820333 -0.0416682
v 0.04902426 0.1114549 2.183248E-12
v 0.04902426 0.1114549 -0.04375909
v 0.04691561 -0.1820333 0.0416682
v 0.04902426 0.1114549 0.04375909
v -0.03757063 0.1188113 -0.04209119
v 0 0.1188113 -0.04209119
v 0.03757063 0.1188113 -0.04209119
v -0.04209119 0.1188113 -0.03757063
v -0.04209119 0.1188113 0
v -0.03757063 0.1188113 0.04209118
v -0.04209119 0.1188113 0.03757063
v 0.04209118 0.1188113 -0.03757063
v 0.04209118 0.1188113 0
v 0.04209118 0.1188113 0.03757063
v 0 0.1188113 0.04209118
v 0.03757063 0.1188113 0.04209118
v -0.0203713 0.1356158 -0.008002561
v -0.008991932 0.1356158 -0.01909821
v 0 0.1356158 -0.01915008
v 0.006884703 0.1356158 -0.01909045
v 0.01800579 0.1356158 -0.007967392
v 0.01816519 0.1356158 0
v 0.01791721 0.1356158 0.00831279
v -0.02015955 0.1356158 0
v -0.00936524 0.1356158 0.01903652
v -0.02038704 0.1356158 0.008300442
v 0.006687982 0.1356158 0.01900555
v 0 0.1356158 0.0190191

vt -0.04285182 0.03785183
vt -0.03785183 0.04285182
vt 0 0.04285182
vt 0 0
vt -0.04285182 0
vt 0 0.01851477
vt 0.009116904 0.01853173
vt 0.01984644 0.00808034
vt 0.01962499 0
vt 0 -0.01864228
vt 0.01983112 -0.007790358
vt 0.008753494 -0.01859178
vt 0 -0.04285182
vt -0.03785183 -0.04285182
vt -0.04285182 -0.03785183
vt 0.04285182 0
vt 0.04285182 -0.03785183
vt 0.03785183 -0.04285182
vt -0.006702143 -0.01858423
vt -0.01752834 -0.007756122
vt -0.01768351 0
vt -0.0174421 0.008092362
vt -0.006510638 0.01850159
vt 0.03785183 0.04285182
vt 0.04285182 0.03785183
vt 0.03785183 -0.1845003
vt 0 -0.1845003
vt 2.811759E-13 -0.03537539
vt 0.03970356 -0.03537539
vt 5.623518E-13 0.1137495
vt 0.04155528 0.1137495
vt -0.03785183 -0.1845003
vt -0.03970356 -0.03537539
vt -0.04155528 0.1137495
vt 0.003723034 0.129324
vt 0.003710477 -0.1235458
vt -0.003710477 -0.1235458
vt -0.003723034 0.129324
vt 0.003535533 -0.1290035
vt -0.003535533 -0.1290035
vt 0.04375909 0.0474863
vt -5.623518E-13 0.0474863
vt 0.03757063 0.05759494
vt 0 0.05759494
vt -0.04375909 0.0474863
vt -0.03757063 0.05759494
vt -0.01174213 0.0139309
vt -0.01633476 0.008069874
vt -0.02138712 0.02081971
vt -0.02533027 0.01578756
vt -0.01633476 -0.008069864
vt -0.01174212 -0.01393089
vt -0.02533026 -0.01578755
vt -0.02138711 -0.0208197
vt 0.01633476 0.008069874
vt 0.01174213 0.0139309
vt 0.02533027 0.01578756
vt 0.02138713 0.02081971
vt 0.01174212 -0.01393089
vt 0.01633476 -0.008069864
vt 0.02138712 -0.0208197
vt 0.02533026 -0.01578755
vt 0.003005535 0.001589175
vt -0.001290315 -0.003145445
vt -0.02286696 0.03255735
vt -0.03368067 0.02091004
vt 0 0.03625304
vt -0.03757063 0.03625304
vt 0 0.06469041
vt -0.006884703 0.06473852
vt -0.000364076 -0.004664384
vt -0.004678231 5.355924E-05
vt 0.03394057 0.01934064
vt 0.02332725 0.03094919
vt 0.0334639 -0.03757063
vt 0.0334639 0
vt 0.06283218 -0.007967392
vt 0.06270145 0
vt 0.03384282 0
vt 0.03384282 0.03757063
vt 0.06308052 0
vt 0.06328345 0.00831279
vt 0.03757063 0.03612308
vt 0.008991932 0.06460232
vt -0.03885097 0
vt -0.03885097 -0.03757063
vt -0.06648042 0
vt -0.06631234 -0.008002561
vt -0.001310365 0.003127143
vt 0.002985258 -0.001607678
vt -0.03334713 -0.02102026
vt -0.02287376 -0.03229167
vt -0.03945488 0.03757063
vt -0.03945488 0
vt -0.06690411 0.008300442
vt -0.06708398 0
vt -0.03757063 -0.03589181
vt 0 -0.03589181
vt -0.006687982 -0.06444591
vt 0 -0.06443495
vt 0.03757063 -0.03592554
vt 0.00936524 -0.0644546
vt -0.0001947297 0.004507811
vt 0.02359493 -0.03075801
vt 0.03430688 -0.01954815
vt -3.537946E-05 0.1354493
vt -0.009400636 0.1354493
vt -3.444131E-05 0.1948148
vt -0.009151361 0.1948148
vt 0.006649482 0.1354493
vt 0.006473159 0.1948148
vt 0.0005416505 0.135464
vt -0.007774837 0.135464
vt 0.0005272877 0.1948294
vt -0.007568675 0.1948294
vt 0.007243064 0.1354604
vt -0.008262764 0.1354604
vt 0.007051 0.1948257
vt -0.008043661 0.1948257
vt 0.008855851 0.1354289
vt 0.008621021 0.1947946
vt -0.007096597 0.1354605
vt 0.008403486 0.1948259
vt -0.006908418 0.1948259
vt -0.008812136 0.1354285
vt -0.008578467 0.1947943
vt -0.006719097 0.135447
vt -0.0005332436 0.1354289
vt -0.0005191037 0.1947946
vt 0.007605642 0.135464

vn 0 -1 0
vn 0 1 0
vn 0 -0.803261 0.5956272
vn 0 -0.007184595 0.9999742
vn 0 -0.803261 -0.5956271
vn 0 -0.007184595 -0.9999742
vn -0.5956272 -0.803261 0
vn -0.9999742 -0.007184595 0
vn 0.5956271 -0.803261 0
vn 0.9999742 -0.007184595 0
vn -0.7070706 -0.01011751 0.7070706
vn -0.3363612 -0.8796148 0.3363612
vn -0.3363612 -0.8796148 -0.3363612
vn -0.7070706 -0.01011751 -0.7070706
vn 0.7070706 -0.01011751 -0.7070706
vn 0.3363612 -0.8796148 -0.3363612
vn 0.3363612 -0.8796148 0.3363612
vn 0.7070706 -0.01011751 0.7070706
vn 0 0.6858559 -0.7277374
vn -0.4393103 0.7835898 -0.4393103
vn -0.7277374 0.6858559 0
vn -0.4393103 0.7835898 0.4393103
vn 0.4393103 0.7835898 -0.4393103
vn 0.7277372 0.6858562 0
vn 0 0.6858562 0.7277372
vn 0.4393103 0.7835898 0.4393103
vn -0.2972851 0.9073274 -0.2972851
vn -0.2949058 0.9076527 -0.2986459
vn -0.2925266 0.9079781 -0.3000067
vn 0 0.8067239 -0.5909286
vn 0.002535696 0.8086893 -0.5882156
vn 0.005071392 0.8106547 -0.5855026
vn 0.2862211 0.9144152 -0.2862209
vn 0.5721976 0.8201159 0
vn 0.5734563 0.8191943 -0.00574895
vn 0.5747151 0.8182728 -0.0114979
vn 0.5747531 0.8183269 0
vn 0.5659105 0.8243138 0.008309033
vn 0.5570679 0.8303007 0.01661807
vn 0 0.8073595 -0.59006
vn -0.001704469 0.8070393 -0.5904926
vn -0.003408939 0.8067192 -0.5909252
vn -0.6082082 0.7937775 0
vn -0.6170267 0.7867745 0.008280063
vn -0.6258453 0.7797714 0.01656013
vn -0.2974182 0.9072402 0.2974184
vn -0.2959035 0.9069401 0.2998209
vn -0.2943888 0.9066401 0.3022234
vn -0.6122015 0.7907018 0
vn -0.6101626 0.7921846 -0.008333227
vn -0.6081237 0.7936673 -0.01666645
vn 0 0.8084877 0.5885131
vn 0.0005961034 0.8084053 0.5886258
vn 0.001192207 0.8083228 0.5887384
vn 0.0005486743 0.8078974 0.5893221
vn 0.001097349 0.8074716 0.5899054
vn 0.2873611 0.9136997 0.2873611
vn 0.2830849 0.9141615 0.290079
vn 0.2788087 0.9146233 0.2927968
vn 0.00186014 0.008495225 0.9999622
vn 0.002024942 0.008495248 0.9999619
vn 0.9995225 0.008110253 0.02981707
vn 0.6895731 0.008207884 0.7241696
vn -0.9995841 0.009001254 -0.02739496
vn 0.7071455 0.00820375 -0.7070205
vn -0.6977326 0.009009813 0.7163016
vn -0.00576851 0.008553624 -0.9999468
vn 0.008660965 0.008553431 -0.9999259
vn -0.6980969 0.008911645 -0.7159479
vn -0.9996096 0.009001468 0.02645009
vn 0.9997671 0.008112244 -0.0200016

usemtl ProBuilder_Default_URP
f 4/4/1 3/3/1 2/2/1
f 4/4/1 2/2/1 1/1/1
f 1/1/1 5/5/1 4/4/1
f 6/4/2 10/9/2 9/8/2
f 9/8/2 8/7/2 6/4/2
f 8/7/2 7/6/2 6/4/2
f 6/4/2 11/10/2 13/12/2
f 6/4/2 13/12/2 12/11/2
f 6/4/2 12/11/2 10/9/2
f 5/5/1 16/15/1 4/4/1
f 16/15/1 15/14/1 4/4/1
f 15/14/1 14/13/1 4/4/1
f 18/17/1 17/16/1 4/4/1
f 19/18/1 18/17/1 4/4/1
f 4/4/1 14/13/1 19/18/1
f 20/19/2 11/10/2 6/4/2
f 6/4/2 21/20/2 20/19/2
f 6/4/2 22/21/2 21/20/2
f 24/23/2 6/4/2 7/6/2
f 23/22/2 22/21/2 6/4/2
f 24/23/2 23/22/2 6/4/2
f 4/4/1 26/25/1 25/24/1
f 4/4/1 17/16/1 26/25/1
f 3/3/1 4/4/1 25/24/1
f 27/28/3 3/27/3 25/26/3
f 25/26/3 28/29/3 27/28/3
f 29/30/4 27/28/4 28/29/4
f 28/29/4 30/31/4 29/30/4
f 2/32/3 3/27/3 27/28/3
f 27/28/3 31/33/3 2/32/3
f 32/34/4 31/33/4 27/28/4
f 27/28/4 29/30/4 32/34/4
f 14/27/5 15/26/5 34/29/5
f 34/29/5 33/28/5 14/27/5
f 33/28/6 34/29/6 36/31/6
f 36/31/6 35/30/6 33/28/6
f 19/32/5 14/27/5 33/28/5
f 33/28/5 37/33/5 19/32/5
f 37/33/6 33/28/6 35/30/6
f 35/30/6 38/34/6 37/33/6
f 5/27/7 1/26/7 40/29/7
f 40/29/7 39/28/7 5/27/7
f 41/30/8 39/28/8 40/29/8
f 40/29/8 42/31/8 41/30/8
f 16/32/7 5/27/7 39/28/7
f 39/28/7 43/33/7 16/32/7
f 44/34/8 43/33/8 39/28/8
f 39/28/8 41/30/8 44/34/8
f 17/27/9 18/26/9 46/29/9
f 46/29/9 45/28/9 17/27/9
f 45/28/10 46/29/10 48/31/10
f 48/31/10 47/30/10 45/28/10
f 26/32/9 17/27/9 45/28/9
f 45/28/9 49/33/9 26/32/9
f 49/33/10 45/28/10 47/30/10
f 47/30/10 50/34/10 49/33/10
f 40/37/11 31/36/11 32/35/11
f 32/35/11 42/38/11 40/37/11
f 2/39/12 31/36/12 40/37/12
f 40/37/12 1/40/12 2/39/12
f 15/40/13 16/39/13 43/36/13
f 43/36/13 34/37/13 15/40/13
f 34/37/14 43/36/14 44/35/14
f 44/35/14 36/38/14 34/37/14
f 46/37/15 37/36/15 38/35/15
f 38/35/15 48/38/15 46/37/15
f 18/40/16 19/39/16 37/36/16
f 37/36/16 46/37/16 18/40/16
f 26/39/17 49/36/17 28/37/17
f 28/37/17 25/40/17 26/39/17
f 28/37/18 49/36/18 50/35/18
f 50/35/18 30/38/18 28/37/18
f 52/44/19 35/42/19 36/41/19
f 36/41/19 51/43/19 52/44/19
f 53/46/19 38/45/19 35/42/19
f 35/42/19 52/44/19 53/46/19
f 51/50/20 36/48/20 44/47/20
f 44/47/20 54/49/20 51/50/20
f 54/46/21 44/45/21 41/42/21
f 41/42/21 55/44/21 54/46/21
f 57/54/22 42/52/22 32/51/22
f 32/51/22 56/53/22 57/54/22
f 58/58/23 48/56/23 38/55/23
f 38/55/23 53/57/23 58/58/23
f 59/44/24 47/42/24 48/41/24
f 48/41/24 58/43/24 59/44/24
f 60/46/24 50/45/24 47/42/24
f 47/42/24 59/44/24 60/46/24
f 56/46/25 32/45/25 29/42/25
f 29/42/25 61/44/25 56/46/25
f 61/44/25 29/42/25 30/41/25
f 30/41/25 62/43/25 61/44/25
f 62/62/26 30/60/26 50/59/26
f 50/59/26 60/61/26 62/62/26
f 55/44/21 41/42/21 42/41/21
f 42/41/21 57/43/21 55/44/21
f 64/66/29 51/64/28 54/63/27
f 54/63/27 63/65/28 64/66/29
f 66/70/32 53/68/31 52/67/30
f 52/67/30 65/69/31 66/70/32
f 67/74/33 58/72/33 53/71/33
f 53/71/33 66/73/33 67/74/33
f 68/78/36 59/76/35 58/75/34
f 58/75/34 67/77/35 68/78/36
f 69/82/39 60/80/38 59/79/37
f 59/79/37 68/81/38 69/82/39
f 65/69/42 52/67/41 51/83/40
f 51/83/40 64/84/41 65/69/42
f 63/88/45 54/86/44 55/85/43
f 55/85/43 70/87/44 63/88/45
f 72/92/48 57/90/47 56/89/46
f 56/89/46 71/91/47 72/92/48
f 70/96/51 55/94/50 57/93/49
f 57/93/49 72/95/50 70/96/51
f 74/100/54 61/98/53 62/97/52
f 62/97/52 73/99/53 74/100/54
f 71/102/56 56/101/55 61/98/52
f 61/98/52 74/100/55 71/102/56
f 73/105/59 62/103/58 60/72/57
f 60/72/57 69/104/58 73/105/59
f 8/109/60 71/107/60 74/106/60
f 74/106/60 7/108/60 8/109/60
f 7/108/61 74/106/61 73/110/61
f 73/110/61 24/111/61 7/108/61
f 23/115/62 69/113/62 68/112/62
f 68/112/62 22/114/62 23/115/62
f 24/119/63 73/117/63 69/116/63
f 69/116/63 23/118/63 24/119/63
f 10/114/64 70/112/64 72/120/64
f 72/120/64 9/121/64 10/114/64
f 21/124/65 67/122/65 66/120/65
f 66/120/65 20/123/65 21/124/65
f 9/126/66 72/125/66 71/110/66
f 71/110/66 8/111/66 9/126/66
f 11/108/67 65/106/67 64/120/67
f 64/120/67 13/121/67 11/108/67
f 20/124/68 66/127/68 65/106/68
f 65/106/68 11/108/68 20/124/68
f 13/124/69 64/127/69 63/120/69
f 63/120/69 12/121/69 13/124/69
f 12/119/70 63/125/70 70/128/70
f 70/128/70 10/129/70 12/119/70
f 22/108/71 68/106/71 67/130/71
f 67/130/71 21/118/71 22/108/71

